<svg width="21" height="20" viewBox="0 0 21 20" fill="none" xmlns="http://www.w3.org/2000/svg">
<path d="M18.1153 8.60697C18.1153 6.58948 17.3139 4.65462 15.8873 3.22803C14.4607 1.80145 12.5258 1 10.5083 1C8.49085 1 6.55598 1.80145 5.1294 3.22803C3.70281 4.65462 2.90137 6.58948 2.90137 8.60697" stroke="black" stroke-width="1.5" stroke-linecap="round" stroke-linejoin="round"/>
<path d="M18.1157 15.2628V15.7382C18.1157 16.2426 17.9153 16.7263 17.5587 17.0829C17.202 17.4396 16.7183 17.6399 16.2139 17.6399H12.8859M1 12.8266V11.0428C1.00006 10.6187 1.14187 10.2068 1.40289 9.87257C1.6639 9.53834 2.02915 9.30093 2.44057 9.19809L4.09509 8.78351C4.17916 8.76257 4.2669 8.76106 4.35164 8.77908C4.43639 8.7971 4.51592 8.83419 4.58419 8.88753C4.65247 8.94087 4.7077 9.00906 4.7457 9.08692C4.78369 9.16478 4.80346 9.25028 4.80349 9.33692V14.5315C4.80364 14.6184 4.78397 14.7041 4.74598 14.7821C4.70799 14.8602 4.65269 14.9286 4.58427 14.982C4.51586 15.0355 4.43615 15.0727 4.35121 15.0907C4.26628 15.1086 4.17835 15.107 4.09414 15.0859L2.43962 14.6723C2.02837 14.5692 1.66334 14.3318 1.40251 13.9975C1.14168 13.6633 1.00001 13.2515 1 12.8276V12.8266ZM20.0174 12.8266V11.0428C20.0174 10.6187 19.8756 10.2068 19.6145 9.87257C19.3535 9.53834 18.9883 9.30093 18.5769 9.19809L16.9223 8.78351C16.8383 8.76257 16.7505 8.76106 16.6658 8.77908C16.581 8.7971 16.5015 8.83419 16.4332 8.88753C16.365 8.94087 16.3097 9.00906 16.2717 9.08692C16.2337 9.16478 16.214 9.25028 16.2139 9.33692V14.5315C16.2138 14.6183 16.2335 14.7039 16.2714 14.7818C16.3094 14.8598 16.3646 14.9281 16.4329 14.9816C16.5012 15.035 16.5807 15.0722 16.6656 15.0903C16.7504 15.1083 16.8382 15.1068 16.9223 15.0859L18.5769 14.6723C18.9883 14.5694 19.3535 14.332 19.6145 13.9978C19.8756 13.6635 20.0174 13.2517 20.0174 12.8276V12.8266Z" stroke="black" stroke-width="1.5"/>
<path d="M11.9352 19.0665H9.08256C8.70428 19.0665 8.34149 18.9162 8.07401 18.6487C7.80652 18.3812 7.65625 18.0185 7.65625 17.6402C7.65625 17.2619 7.80652 16.8991 8.07401 16.6316C8.34149 16.3641 8.70428 16.2139 9.08256 16.2139H11.9352C12.3135 16.2139 12.6762 16.3641 12.9437 16.6316C13.2112 16.8991 13.3615 17.2619 13.3615 17.6402C13.3615 18.0185 13.2112 18.3812 12.9437 18.6487C12.6762 18.9162 12.3135 19.0665 11.9352 19.0665Z" stroke="black" stroke-width="1.5"/>
</svg>
